Coordinates
version=1
nRows=9
nColumns=36
inDegrees=yes

Units are S.I. units (second, meters, Newtons, ...)
Angles are in degrees.

endheader
time	pelvis_tilt	pelvis_list	pelvis_rotation	pelvis_tx	pelvis_ty	pelvis_tz	hip_flexion_r	hip_adduction_r	hip_rotation_r	knee_angle_r	ankle_angle_r	subtalar_angle_r	hip_flexion_l	hip_adduction_l	hip_rotation_l	knee_angle_l	ankle_angle_l	subtalar_angle_l	lumbar_extension	lumbar_bending	lumbar_rotation	arm_flex_r	arm_add_r	arm_rot_r	elbow_flex_r	pro_sup_r	wrist_flex_r	wrist_dev_r	arm_flex_l	arm_add_l	arm_rot_l	elbow_flex_l	pro_sup_l	wrist_flex_l	wrist_dev_l
      2.43000000	      0.50929485	     -2.75084688	     -1.70237148	     -0.14227992	      0.89565101	     -0.16793356	    -16.60571787	      7.05558448	     -5.33800303	    -16.56222051	     13.33810424	     10.23543947	     28.89471252	      1.52233318	      0.47995711	    -15.75494462	      3.42487373	      4.20798858	     -8.13500221	      5.59454521	      2.97903504	      0.36161516	    -23.03514800	      6.04193045	     38.59142973	     86.51662706	      0.00000000	      0.00000000	     -6.08304106	    -12.54279621	     19.64883445	      9.96449145	     86.51662706	      0.00000000	      0.00000000
      2.44000000	      0.33462807	     -2.56301338	     -1.74553491	     -0.12720077	      0.89395219	     -0.16753042	    -16.63825792	      6.62849635	     -5.45083258	    -17.93753611	     12.85675610	     10.97076863	     28.95852649	      1.98766628	      0.88187554	    -17.06281879	      2.24951368	      3.60632814	     -7.66397061	      5.23121065	      2.79177821	     -0.00635031	    -22.86638353	      5.82070214	     38.61712443	     86.51662706	      0.00000000	      0.00000000	     -6.34199242	    -12.56847488	     20.16883603	      9.46549375	     86.51662706	      0.00000000	      0.00000000
      2.45000000	      0.14723568	     -2.30539332	     -1.70450475	     -0.11194629	      0.89224882	     -0.16718632	    -16.56473403	      6.14888481	     -5.58660959	    -19.44448213	     12.13561382	     11.66911786	     29.03616728	      2.54851990	      1.38779701	    -18.38852245	      0.82086307	      2.63125673	     -7.14233652	      4.77245591	      2.48593132	     -0.40513669	    -22.63437861	      5.57950189	     38.54610979	     86.51662706	      0.00000000	      0.00000000	     -6.60188588	    -12.62660793	     20.70204928	      8.99635752	     86.51662706	      0.00000000	      0.00000000
      2.46000000	     -0.04052010	     -1.96341025	     -1.57833911	     -0.09661668	      0.89083005	     -0.16694180	    -16.36391664	      5.60803944	     -5.74265790	    -21.10676630	     11.09293859	     12.30045847	     29.15237240	      3.18956406	      1.95229218	    -19.70575894	     -0.73672216	      1.38461749	     -6.59377633	      4.21217312	      2.07070142	     -0.82388020	    -22.34018328	      5.31420048	     38.37664136	     86.51662706	      0.00000000	      0.00000000	     -6.84470601	    -12.71606512	     21.23219129	      8.56825937	     86.51662706	      0.00000000	      0.00000000
      2.47000000	     -0.22629358	     -1.52548194	     -1.38048971	     -0.08136284	      0.88995280	     -0.16681636	    -16.01008322	      4.99259475	     -5.91470499	    -22.95061004	      9.64798712	     12.83698177	     29.29595193	      3.89547618	      2.53267232	    -21.02623081	     -2.26896156	     -0.00851777	     -6.04298995	      3.54749442	      1.57067515	     -1.25559197	    -21.98739944	      5.02362912	     38.11145723	     86.51662706	      0.00000000	      0.00000000	     -7.05369797	    -12.83578692	     21.74123289	      8.19335206	     86.51662706	      0.00000000	      0.00000000
      2.48000000	     -0.41146329	     -0.99207202	     -1.13659783	     -0.06628548	      0.88967940	     -0.16678158	    -15.47929574	      4.29117076	     -6.09291874	    -25.00079085	      7.74016655	     13.24932839	     29.42992391	      4.65510070	      3.09172453	    -22.36436462	     -3.61851844	     -1.41375682	     -5.51197747	      2.78248699	      1.02339936	     -1.69731624	    -21.58288982	      4.71104270	     37.75739816	     86.51662706	      0.00000000	      0.00000000	     -7.21582930	    -12.98494769	     22.21022222	      7.88415840	     86.51662706	      0.00000000	      0.00000000
      2.49000000	     -0.59074522	     -0.37932117	     -0.87859962	     -0.05135743	      0.88987265	     -0.16676549	    -14.75421432	      3.50036098	     -6.25770977	    -27.27661620	      5.35006002	     13.50123370	     29.51393875	      5.46141188	      3.59829773	    -23.70605482	     -4.65064486	     -2.70316528	     -5.01843283	      1.93011512	      0.47300700	     -2.14849336	    -21.13704075	      4.38507745	     37.32432476	     86.51662706	      0.00000000	      0.00000000	     -7.32264035	    -13.16271139	     22.62039248	      7.65285202	     86.51662706	      0.00000000	      0.00000000
      2.50000000	     -0.75431800	      0.28631877	     -0.63735469	     -0.03651882	      0.89032576	     -0.16668664	    -13.82461213	      2.62882437	     -6.37793890	    -29.78790687	      2.51728709	     13.54488411	     29.51584124	      6.30650428	      4.02712336	    -25.00418890	     -5.27243666	     -3.77050661	     -4.57589072	      1.01161802	     -0.03836968	     -2.60804699	    -20.66339477	      4.05996021	     36.82350647	     86.51662706	      0.00000000	      0.00000000	     -7.36972519	    -13.36762245	     22.95448071	      7.51044368	     86.51662706	      0.00000000	      0.00000000
      2.51000000	     -0.89788598	      0.97867348	     -0.43678393	     -0.02181544	      0.89089960	     -0.16649281	    -12.68546061	      1.69888936	     -6.41420796	    -32.53223730	     -0.65022886	     13.31971713	     29.41144279	      7.17398969	      4.35834829	    -26.19730946	     -5.44343139	     -4.54270111	     -4.19417732	      0.05398675	     -0.47868518	     -3.07133023	    -20.17770915	      3.75486187	     36.26581487	     86.51662706	      0.00000000	      0.00000000	     -7.35571034	    -13.59692857	     23.19811683	      7.46588659	     86.51662706	      0.00000000	      0.00000000
